<mxfile host="app.diagrams.net" modified="2024-05-08T09:55:25.246Z" agent="Mozilla/5.0 (X11; Ubuntu; Linux x86_64; rv:123.0) Gecko/20100101 Firefox/123.0" etag="2e4v9sDZQgIdf8vyGiVY" version="24.3.1" type="device">
  <diagram id="C5RBs43oDa-KdzZeNtuy" name="Page-1">
    <mxGraphModel dx="1114" dy="642" grid="1" gridSize="10" guides="1" tooltips="1" connect="1" arrows="1" fold="1" page="1" pageScale="1" pageWidth="827" pageHeight="1169" math="0" shadow="0">
      <root>
        <mxCell id="WIyWlLk6GJQsqaUBKTNV-0" />
        <mxCell id="WIyWlLk6GJQsqaUBKTNV-1" parent="WIyWlLk6GJQsqaUBKTNV-0" />
        <mxCell id="SkYOXdB6ktaihSJoesc6-59" value="" style="group" vertex="1" connectable="0" parent="WIyWlLk6GJQsqaUBKTNV-1">
          <mxGeometry y="19" width="560" height="1391" as="geometry" />
        </mxCell>
        <mxCell id="M3zcWdmuoQv2XmHBQKJG-123" value="" style="rounded=0;whiteSpace=wrap;html=1;fillColor=#e1d5e7;strokeColor=none;fillStyle=solid;" vertex="1" parent="SkYOXdB6ktaihSJoesc6-59">
          <mxGeometry y="1121" width="560" height="270" as="geometry" />
        </mxCell>
        <mxCell id="M3zcWdmuoQv2XmHBQKJG-121" value="" style="rounded=0;whiteSpace=wrap;html=1;fillColor=#FFCCCC;strokeColor=none;fillStyle=solid;" vertex="1" parent="SkYOXdB6ktaihSJoesc6-59">
          <mxGeometry y="711" width="560" height="400" as="geometry" />
        </mxCell>
        <mxCell id="M3zcWdmuoQv2XmHBQKJG-118" value="" style="rounded=0;whiteSpace=wrap;html=1;fillColor=#dae8fc;strokeColor=none;fillStyle=solid;" vertex="1" parent="SkYOXdB6ktaihSJoesc6-59">
          <mxGeometry y="141" width="560" height="560" as="geometry" />
        </mxCell>
        <mxCell id="M3zcWdmuoQv2XmHBQKJG-2" style="edgeStyle=orthogonalEdgeStyle;rounded=0;orthogonalLoop=1;jettySize=auto;html=1;exitX=0.5;exitY=1;exitDx=0;exitDy=0;endArrow=block;endFill=0;" edge="1" parent="SkYOXdB6ktaihSJoesc6-59" source="WIyWlLk6GJQsqaUBKTNV-3" target="M3zcWdmuoQv2XmHBQKJG-0">
          <mxGeometry relative="1" as="geometry" />
        </mxCell>
        <mxCell id="WIyWlLk6GJQsqaUBKTNV-3" value="start new network" style="rounded=1;whiteSpace=wrap;html=1;fontSize=12;glass=0;strokeWidth=1;shadow=0;fillColor=#ffe6cc;strokeColor=#d79b00;" parent="SkYOXdB6ktaihSJoesc6-59" vertex="1">
          <mxGeometry x="213" width="120" height="40" as="geometry" />
        </mxCell>
        <mxCell id="M3zcWdmuoQv2XmHBQKJG-28" style="edgeStyle=orthogonalEdgeStyle;rounded=0;orthogonalLoop=1;jettySize=auto;html=1;exitX=0.5;exitY=1;exitDx=0;exitDy=0;entryX=0.5;entryY=0;entryDx=0;entryDy=0;endArrow=block;endFill=0;" edge="1" parent="SkYOXdB6ktaihSJoesc6-59" source="M3zcWdmuoQv2XmHBQKJG-0" target="M3zcWdmuoQv2XmHBQKJG-4">
          <mxGeometry relative="1" as="geometry" />
        </mxCell>
        <mxCell id="M3zcWdmuoQv2XmHBQKJG-0" value="connect laptop to the new network" style="rounded=1;whiteSpace=wrap;html=1;fontSize=12;glass=0;strokeWidth=1;shadow=0;fillColor=#ffe6cc;strokeColor=#d79b00;" vertex="1" parent="SkYOXdB6ktaihSJoesc6-59">
          <mxGeometry x="213" y="70" width="120" height="50" as="geometry" />
        </mxCell>
        <mxCell id="M3zcWdmuoQv2XmHBQKJG-6" style="edgeStyle=orthogonalEdgeStyle;rounded=0;orthogonalLoop=1;jettySize=auto;html=1;exitX=0.5;exitY=1;exitDx=0;exitDy=0;entryX=0.5;entryY=0;entryDx=0;entryDy=0;endArrow=block;endFill=0;" edge="1" parent="SkYOXdB6ktaihSJoesc6-59" source="M3zcWdmuoQv2XmHBQKJG-4" target="M3zcWdmuoQv2XmHBQKJG-5">
          <mxGeometry relative="1" as="geometry" />
        </mxCell>
        <mxCell id="M3zcWdmuoQv2XmHBQKJG-4" value="enable TUN device" style="rounded=1;whiteSpace=wrap;html=1;fontSize=12;glass=0;strokeWidth=1;shadow=0;fillColor=#fff2cc;strokeColor=#d6b656;" vertex="1" parent="SkYOXdB6ktaihSJoesc6-59">
          <mxGeometry x="208" y="158" width="130" height="40" as="geometry" />
        </mxCell>
        <mxCell id="M3zcWdmuoQv2XmHBQKJG-26" style="edgeStyle=orthogonalEdgeStyle;rounded=0;orthogonalLoop=1;jettySize=auto;html=1;exitX=0.5;exitY=1;exitDx=0;exitDy=0;endArrow=block;endFill=0;" edge="1" parent="SkYOXdB6ktaihSJoesc6-59" source="M3zcWdmuoQv2XmHBQKJG-5" target="M3zcWdmuoQv2XmHBQKJG-41">
          <mxGeometry relative="1" as="geometry">
            <mxPoint x="273" y="311" as="targetPoint" />
          </mxGeometry>
        </mxCell>
        <mxCell id="M3zcWdmuoQv2XmHBQKJG-29" value="Yes" style="edgeLabel;html=1;align=center;verticalAlign=middle;resizable=0;points=[];" vertex="1" connectable="0" parent="M3zcWdmuoQv2XmHBQKJG-26">
          <mxGeometry x="-0.2406" y="-1" relative="1" as="geometry">
            <mxPoint x="16" y="-4" as="offset" />
          </mxGeometry>
        </mxCell>
        <mxCell id="M3zcWdmuoQv2XmHBQKJG-36" style="edgeStyle=orthogonalEdgeStyle;rounded=0;orthogonalLoop=1;jettySize=auto;html=1;exitX=1;exitY=0.5;exitDx=0;exitDy=0;entryX=1;entryY=0.5;entryDx=0;entryDy=0;endArrow=block;endFill=0;" edge="1" parent="SkYOXdB6ktaihSJoesc6-59" source="M3zcWdmuoQv2XmHBQKJG-5" target="M3zcWdmuoQv2XmHBQKJG-4">
          <mxGeometry relative="1" as="geometry">
            <Array as="points">
              <mxPoint x="393" y="251" />
              <mxPoint x="393" y="178" />
            </Array>
          </mxGeometry>
        </mxCell>
        <mxCell id="M3zcWdmuoQv2XmHBQKJG-37" value="No" style="edgeLabel;html=1;align=center;verticalAlign=middle;resizable=0;points=[];" vertex="1" connectable="0" parent="M3zcWdmuoQv2XmHBQKJG-36">
          <mxGeometry x="-0.3934" y="-2" relative="1" as="geometry">
            <mxPoint x="-18" y="-3" as="offset" />
          </mxGeometry>
        </mxCell>
        <mxCell id="M3zcWdmuoQv2XmHBQKJG-5" value="check ifconfig" style="rhombus;whiteSpace=wrap;html=1;shadow=0;fontFamily=Helvetica;fontSize=12;align=center;strokeWidth=1;spacing=6;spacingTop=-4;" vertex="1" parent="SkYOXdB6ktaihSJoesc6-59">
          <mxGeometry x="198" y="221" width="150" height="60" as="geometry" />
        </mxCell>
        <mxCell id="M3zcWdmuoQv2XmHBQKJG-64" style="edgeStyle=orthogonalEdgeStyle;rounded=0;orthogonalLoop=1;jettySize=auto;html=1;exitX=0.5;exitY=1;exitDx=0;exitDy=0;endArrow=block;endFill=0;" edge="1" parent="SkYOXdB6ktaihSJoesc6-59" source="M3zcWdmuoQv2XmHBQKJG-41" target="M3zcWdmuoQv2XmHBQKJG-52">
          <mxGeometry relative="1" as="geometry" />
        </mxCell>
        <mxCell id="M3zcWdmuoQv2XmHBQKJG-41" value="&lt;div&gt;enable IP forwarding&lt;/div&gt;&lt;div&gt;&amp;amp;&amp;nbsp; NAT rule&lt;br&gt;&lt;/div&gt;" style="rounded=1;whiteSpace=wrap;html=1;fontSize=12;glass=0;strokeWidth=1;shadow=0;fillColor=#fff2cc;strokeColor=#d6b656;" vertex="1" parent="SkYOXdB6ktaihSJoesc6-59">
          <mxGeometry x="200.5" y="311" width="145" height="50" as="geometry" />
        </mxCell>
        <mxCell id="M3zcWdmuoQv2XmHBQKJG-48" style="edgeStyle=orthogonalEdgeStyle;rounded=0;orthogonalLoop=1;jettySize=auto;html=1;exitX=0.5;exitY=1;exitDx=0;exitDy=0;endArrow=block;endFill=0;" edge="1" parent="SkYOXdB6ktaihSJoesc6-59" source="M3zcWdmuoQv2XmHBQKJG-52" target="M3zcWdmuoQv2XmHBQKJG-57">
          <mxGeometry relative="1" as="geometry">
            <mxPoint x="273" y="474" as="targetPoint" />
          </mxGeometry>
        </mxCell>
        <mxCell id="M3zcWdmuoQv2XmHBQKJG-49" value="Yes" style="edgeLabel;html=1;align=center;verticalAlign=middle;resizable=0;points=[];" vertex="1" connectable="0" parent="M3zcWdmuoQv2XmHBQKJG-48">
          <mxGeometry x="-0.2406" y="-1" relative="1" as="geometry">
            <mxPoint x="16" y="2" as="offset" />
          </mxGeometry>
        </mxCell>
        <mxCell id="M3zcWdmuoQv2XmHBQKJG-53" style="edgeStyle=orthogonalEdgeStyle;rounded=0;orthogonalLoop=1;jettySize=auto;html=1;exitX=1;exitY=0.5;exitDx=0;exitDy=0;entryX=1;entryY=0.5;entryDx=0;entryDy=0;endArrow=block;endFill=0;" edge="1" parent="SkYOXdB6ktaihSJoesc6-59" source="M3zcWdmuoQv2XmHBQKJG-52" target="M3zcWdmuoQv2XmHBQKJG-41">
          <mxGeometry relative="1" as="geometry">
            <Array as="points">
              <mxPoint x="393" y="418" />
              <mxPoint x="393" y="336" />
            </Array>
          </mxGeometry>
        </mxCell>
        <mxCell id="M3zcWdmuoQv2XmHBQKJG-55" value="No" style="edgeLabel;html=1;align=center;verticalAlign=middle;resizable=0;points=[];" vertex="1" connectable="0" parent="M3zcWdmuoQv2XmHBQKJG-53">
          <mxGeometry x="-0.6833" y="3" relative="1" as="geometry">
            <mxPoint x="-2" y="-7" as="offset" />
          </mxGeometry>
        </mxCell>
        <mxCell id="M3zcWdmuoQv2XmHBQKJG-52" value="&lt;div&gt;check &lt;br&gt;&lt;/div&gt;&lt;div&gt;iptable NAT&lt;br&gt;&lt;/div&gt;" style="rhombus;whiteSpace=wrap;html=1;shadow=0;fontFamily=Helvetica;fontSize=12;align=center;strokeWidth=1;spacing=6;spacingTop=-4;" vertex="1" parent="SkYOXdB6ktaihSJoesc6-59">
          <mxGeometry x="198" y="384" width="150" height="67" as="geometry" />
        </mxCell>
        <mxCell id="M3zcWdmuoQv2XmHBQKJG-66" style="edgeStyle=orthogonalEdgeStyle;rounded=0;orthogonalLoop=1;jettySize=auto;html=1;exitX=0.5;exitY=1;exitDx=0;exitDy=0;endArrow=block;endFill=0;" edge="1" parent="SkYOXdB6ktaihSJoesc6-59" source="M3zcWdmuoQv2XmHBQKJG-57" target="M3zcWdmuoQv2XmHBQKJG-65">
          <mxGeometry relative="1" as="geometry" />
        </mxCell>
        <mxCell id="M3zcWdmuoQv2XmHBQKJG-57" value="&lt;div&gt;start open5GS service&lt;/div&gt;&lt;div&gt;w/ config files&lt;br&gt;&lt;/div&gt;" style="rounded=1;whiteSpace=wrap;html=1;fontSize=12;glass=0;strokeWidth=1;shadow=0;fillColor=#fff2cc;strokeColor=#d6b656;" vertex="1" parent="SkYOXdB6ktaihSJoesc6-59">
          <mxGeometry x="191.75" y="481" width="162.5" height="50" as="geometry" />
        </mxCell>
        <mxCell id="M3zcWdmuoQv2XmHBQKJG-67" style="edgeStyle=orthogonalEdgeStyle;rounded=0;orthogonalLoop=1;jettySize=auto;html=1;exitX=1;exitY=0.5;exitDx=0;exitDy=0;endArrow=block;endFill=0;" edge="1" parent="SkYOXdB6ktaihSJoesc6-59" source="M3zcWdmuoQv2XmHBQKJG-65">
          <mxGeometry relative="1" as="geometry">
            <mxPoint x="354" y="511" as="targetPoint" />
            <Array as="points">
              <mxPoint x="393" y="604" />
              <mxPoint x="393" y="511" />
            </Array>
          </mxGeometry>
        </mxCell>
        <mxCell id="M3zcWdmuoQv2XmHBQKJG-78" style="edgeStyle=orthogonalEdgeStyle;rounded=0;orthogonalLoop=1;jettySize=auto;html=1;exitX=0.5;exitY=1;exitDx=0;exitDy=0;entryX=0.5;entryY=0;entryDx=0;entryDy=0;endArrow=block;endFill=0;" edge="1" parent="SkYOXdB6ktaihSJoesc6-59" source="M3zcWdmuoQv2XmHBQKJG-65" target="M3zcWdmuoQv2XmHBQKJG-72">
          <mxGeometry relative="1" as="geometry">
            <mxPoint x="273" y="700.5" as="targetPoint" />
          </mxGeometry>
        </mxCell>
        <mxCell id="M3zcWdmuoQv2XmHBQKJG-92" value="Yes" style="edgeLabel;html=1;align=center;verticalAlign=middle;resizable=0;points=[];" vertex="1" connectable="0" parent="M3zcWdmuoQv2XmHBQKJG-78">
          <mxGeometry x="0.1875" relative="1" as="geometry">
            <mxPoint x="14" y="-6" as="offset" />
          </mxGeometry>
        </mxCell>
        <mxCell id="M3zcWdmuoQv2XmHBQKJG-96" style="edgeStyle=orthogonalEdgeStyle;rounded=0;orthogonalLoop=1;jettySize=auto;html=1;exitX=0.5;exitY=1;exitDx=0;exitDy=0;entryX=1;entryY=0.5;entryDx=0;entryDy=0;endArrow=block;endFill=0;" edge="1" parent="SkYOXdB6ktaihSJoesc6-59" source="M3zcWdmuoQv2XmHBQKJG-65" target="M3zcWdmuoQv2XmHBQKJG-94">
          <mxGeometry relative="1" as="geometry">
            <Array as="points">
              <mxPoint x="273" y="669" />
            </Array>
          </mxGeometry>
        </mxCell>
        <mxCell id="M3zcWdmuoQv2XmHBQKJG-97" value="Yes" style="edgeLabel;html=1;align=center;verticalAlign=middle;resizable=0;points=[];" vertex="1" connectable="0" parent="M3zcWdmuoQv2XmHBQKJG-96">
          <mxGeometry x="-0.1202" y="-2" relative="1" as="geometry">
            <mxPoint x="-32" y="-11" as="offset" />
          </mxGeometry>
        </mxCell>
        <mxCell id="M3zcWdmuoQv2XmHBQKJG-65" value="&lt;div&gt;check&lt;/div&gt;&lt;div&gt;all open5GS Service &lt;br&gt;&lt;/div&gt;&lt;div&gt;start&lt;br&gt;&lt;/div&gt;" style="rhombus;whiteSpace=wrap;html=1;shadow=0;fontFamily=Helvetica;fontSize=12;align=center;strokeWidth=1;spacing=6;spacingTop=-4;" vertex="1" parent="SkYOXdB6ktaihSJoesc6-59">
          <mxGeometry x="190.5" y="561" width="165" height="85.5" as="geometry" />
        </mxCell>
        <mxCell id="M3zcWdmuoQv2XmHBQKJG-68" value="No" style="edgeLabel;html=1;align=center;verticalAlign=middle;resizable=0;points=[];" vertex="1" connectable="0" parent="SkYOXdB6ktaihSJoesc6-59">
          <mxGeometry x="374.16666666666674" y="593.0000000000001" as="geometry" />
        </mxCell>
        <mxCell id="M3zcWdmuoQv2XmHBQKJG-71" style="edgeStyle=orthogonalEdgeStyle;rounded=0;orthogonalLoop=1;jettySize=auto;html=1;exitX=0.5;exitY=1;exitDx=0;exitDy=0;endArrow=block;endFill=0;" edge="1" parent="SkYOXdB6ktaihSJoesc6-59" source="M3zcWdmuoQv2XmHBQKJG-72" target="M3zcWdmuoQv2XmHBQKJG-79">
          <mxGeometry relative="1" as="geometry">
            <mxPoint x="273" y="789.5" as="targetPoint" />
          </mxGeometry>
        </mxCell>
        <mxCell id="M3zcWdmuoQv2XmHBQKJG-72" value="uhd_find_device" style="rounded=1;whiteSpace=wrap;html=1;fontSize=12;glass=0;strokeWidth=1;shadow=0;fillColor=#fff2cc;strokeColor=#d6b656;" vertex="1" parent="SkYOXdB6ktaihSJoesc6-59">
          <mxGeometry x="208" y="726.5" width="130" height="40" as="geometry" />
        </mxCell>
        <mxCell id="M3zcWdmuoQv2XmHBQKJG-99" style="edgeStyle=orthogonalEdgeStyle;rounded=0;orthogonalLoop=1;jettySize=auto;html=1;exitX=0.5;exitY=1;exitDx=0;exitDy=0;endArrow=block;endFill=0;" edge="1" parent="SkYOXdB6ktaihSJoesc6-59" source="M3zcWdmuoQv2XmHBQKJG-79" target="M3zcWdmuoQv2XmHBQKJG-82">
          <mxGeometry relative="1" as="geometry" />
        </mxCell>
        <mxCell id="M3zcWdmuoQv2XmHBQKJG-79" value="run performance script" style="rounded=1;whiteSpace=wrap;html=1;fontSize=12;glass=0;strokeWidth=1;shadow=0;fillColor=#fff2cc;strokeColor=#d6b656;" vertex="1" parent="SkYOXdB6ktaihSJoesc6-59">
          <mxGeometry x="194" y="789" width="158" height="40" as="geometry" />
        </mxCell>
        <mxCell id="M3zcWdmuoQv2XmHBQKJG-81" style="edgeStyle=orthogonalEdgeStyle;rounded=0;orthogonalLoop=1;jettySize=auto;html=1;exitX=0.5;exitY=1;exitDx=0;exitDy=0;endArrow=block;endFill=0;" edge="1" parent="SkYOXdB6ktaihSJoesc6-59" source="M3zcWdmuoQv2XmHBQKJG-82" target="M3zcWdmuoQv2XmHBQKJG-87">
          <mxGeometry relative="1" as="geometry" />
        </mxCell>
        <mxCell id="M3zcWdmuoQv2XmHBQKJG-82" value="&lt;div&gt;start gNB&lt;/div&gt;&lt;div&gt;w/ config file&lt;br&gt;&lt;/div&gt;" style="rounded=1;whiteSpace=wrap;html=1;fontSize=12;glass=0;strokeWidth=1;shadow=0;fillColor=#fff2cc;strokeColor=#d6b656;" vertex="1" parent="SkYOXdB6ktaihSJoesc6-59">
          <mxGeometry x="215.75" y="858" width="116.5" height="50" as="geometry" />
        </mxCell>
        <mxCell id="M3zcWdmuoQv2XmHBQKJG-83" style="edgeStyle=orthogonalEdgeStyle;rounded=0;orthogonalLoop=1;jettySize=auto;html=1;exitX=0.5;exitY=1;exitDx=0;exitDy=0;endArrow=block;endFill=0;entryX=0.5;entryY=0;entryDx=0;entryDy=0;" edge="1" parent="SkYOXdB6ktaihSJoesc6-59" source="M3zcWdmuoQv2XmHBQKJG-87" target="M3zcWdmuoQv2XmHBQKJG-105">
          <mxGeometry relative="1" as="geometry">
            <mxPoint x="273.0526315789473" y="1107" as="targetPoint" />
          </mxGeometry>
        </mxCell>
        <mxCell id="M3zcWdmuoQv2XmHBQKJG-89" style="edgeStyle=orthogonalEdgeStyle;rounded=0;orthogonalLoop=1;jettySize=auto;html=1;exitX=1;exitY=0.5;exitDx=0;exitDy=0;endArrow=block;endFill=0;" edge="1" parent="SkYOXdB6ktaihSJoesc6-59" source="M3zcWdmuoQv2XmHBQKJG-87" target="M3zcWdmuoQv2XmHBQKJG-88">
          <mxGeometry relative="1" as="geometry" />
        </mxCell>
        <mxCell id="M3zcWdmuoQv2XmHBQKJG-90" value="No" style="edgeLabel;html=1;align=center;verticalAlign=middle;resizable=0;points=[];" vertex="1" connectable="0" parent="M3zcWdmuoQv2XmHBQKJG-89">
          <mxGeometry x="-0.0308" y="-4" relative="1" as="geometry">
            <mxPoint x="-11" y="-13" as="offset" />
          </mxGeometry>
        </mxCell>
        <mxCell id="M3zcWdmuoQv2XmHBQKJG-101" style="edgeStyle=orthogonalEdgeStyle;rounded=0;orthogonalLoop=1;jettySize=auto;html=1;exitX=0.5;exitY=1;exitDx=0;exitDy=0;entryX=1;entryY=0.5;entryDx=0;entryDy=0;endArrow=block;endFill=0;" edge="1" parent="SkYOXdB6ktaihSJoesc6-59" source="M3zcWdmuoQv2XmHBQKJG-87" target="M3zcWdmuoQv2XmHBQKJG-100">
          <mxGeometry relative="1" as="geometry" />
        </mxCell>
        <mxCell id="M3zcWdmuoQv2XmHBQKJG-103" value="Yes" style="edgeLabel;html=1;align=center;verticalAlign=middle;resizable=0;points=[];" vertex="1" connectable="0" parent="M3zcWdmuoQv2XmHBQKJG-101">
          <mxGeometry x="-0.5573" y="1" relative="1" as="geometry">
            <mxPoint x="14" y="-16" as="offset" />
          </mxGeometry>
        </mxCell>
        <mxCell id="M3zcWdmuoQv2XmHBQKJG-104" value="Yes" style="edgeLabel;html=1;align=center;verticalAlign=middle;resizable=0;points=[];" vertex="1" connectable="0" parent="M3zcWdmuoQv2XmHBQKJG-101">
          <mxGeometry x="0.1123" y="3" relative="1" as="geometry">
            <mxPoint x="-16" y="-13" as="offset" />
          </mxGeometry>
        </mxCell>
        <mxCell id="M3zcWdmuoQv2XmHBQKJG-87" value="&lt;div&gt;gNB start&lt;/div&gt;&lt;div&gt;successful&lt;br&gt;&lt;/div&gt;" style="rhombus;whiteSpace=wrap;html=1;shadow=0;fontFamily=Helvetica;fontSize=12;align=center;strokeWidth=1;spacing=6;spacingTop=-4;" vertex="1" parent="SkYOXdB6ktaihSJoesc6-59">
          <mxGeometry x="199" y="931" width="150" height="67" as="geometry" />
        </mxCell>
        <mxCell id="M3zcWdmuoQv2XmHBQKJG-91" style="edgeStyle=orthogonalEdgeStyle;rounded=0;orthogonalLoop=1;jettySize=auto;html=1;exitX=0.5;exitY=0;exitDx=0;exitDy=0;entryX=1;entryY=0.5;entryDx=0;entryDy=0;endArrow=block;endFill=0;" edge="1" parent="SkYOXdB6ktaihSJoesc6-59" source="M3zcWdmuoQv2XmHBQKJG-88" target="M3zcWdmuoQv2XmHBQKJG-82">
          <mxGeometry relative="1" as="geometry" />
        </mxCell>
        <mxCell id="M3zcWdmuoQv2XmHBQKJG-88" value="&lt;div&gt;kill&amp;nbsp;&lt;/div&gt;&lt;div&gt;existing gNB&lt;/div&gt;" style="rounded=1;whiteSpace=wrap;html=1;" vertex="1" parent="SkYOXdB6ktaihSJoesc6-59">
          <mxGeometry x="414" y="939.5" width="120" height="50" as="geometry" />
        </mxCell>
        <mxCell id="M3zcWdmuoQv2XmHBQKJG-94" value="5gc.log" style="rounded=1;whiteSpace=wrap;html=1;fillColor=#d5e8d4;strokeColor=#82b366;" vertex="1" parent="SkYOXdB6ktaihSJoesc6-59">
          <mxGeometry x="50" y="646.5" width="100" height="45.5" as="geometry" />
        </mxCell>
        <mxCell id="M3zcWdmuoQv2XmHBQKJG-100" value="&lt;div&gt;gNB log&lt;/div&gt;&lt;div&gt;MAC Wireshark&lt;/div&gt;&lt;div&gt;NGAP Wireshark&lt;/div&gt;&lt;div&gt;gNB trace&lt;br&gt;&lt;/div&gt;" style="rounded=1;whiteSpace=wrap;html=1;fillColor=#d5e8d4;strokeColor=#82b366;" vertex="1" parent="SkYOXdB6ktaihSJoesc6-59">
          <mxGeometry x="30" y="1007" width="145" height="86.5" as="geometry" />
        </mxCell>
        <mxCell id="M3zcWdmuoQv2XmHBQKJG-108" style="edgeStyle=orthogonalEdgeStyle;rounded=0;orthogonalLoop=1;jettySize=auto;html=1;exitX=0.5;exitY=1;exitDx=0;exitDy=0;endArrow=block;endFill=0;" edge="1" parent="SkYOXdB6ktaihSJoesc6-59" source="M3zcWdmuoQv2XmHBQKJG-105" target="M3zcWdmuoQv2XmHBQKJG-107">
          <mxGeometry relative="1" as="geometry" />
        </mxCell>
        <mxCell id="M3zcWdmuoQv2XmHBQKJG-105" value="&lt;div&gt;start UE&lt;/div&gt;&lt;div&gt;w/ config&lt;br&gt;&lt;/div&gt;" style="rounded=1;whiteSpace=wrap;html=1;fontSize=12;glass=0;strokeWidth=1;shadow=0;fillColor=#fff2cc;strokeColor=#d6b656;" vertex="1" parent="SkYOXdB6ktaihSJoesc6-59">
          <mxGeometry x="215.75" y="1145" width="116.5" height="50" as="geometry" />
        </mxCell>
        <mxCell id="M3zcWdmuoQv2XmHBQKJG-112" style="edgeStyle=orthogonalEdgeStyle;rounded=0;orthogonalLoop=1;jettySize=auto;html=1;exitX=1;exitY=0.5;exitDx=0;exitDy=0;entryX=0;entryY=0.5;entryDx=0;entryDy=0;endArrow=block;endFill=0;" edge="1" parent="SkYOXdB6ktaihSJoesc6-59" source="M3zcWdmuoQv2XmHBQKJG-107" target="M3zcWdmuoQv2XmHBQKJG-111">
          <mxGeometry relative="1" as="geometry" />
        </mxCell>
        <mxCell id="M3zcWdmuoQv2XmHBQKJG-113" value="No" style="edgeLabel;html=1;align=center;verticalAlign=middle;resizable=0;points=[];" vertex="1" connectable="0" parent="M3zcWdmuoQv2XmHBQKJG-112">
          <mxGeometry x="0.2821" y="2" relative="1" as="geometry">
            <mxPoint x="-30" y="-8" as="offset" />
          </mxGeometry>
        </mxCell>
        <mxCell id="M3zcWdmuoQv2XmHBQKJG-116" style="edgeStyle=orthogonalEdgeStyle;rounded=0;orthogonalLoop=1;jettySize=auto;html=1;exitX=0.5;exitY=1;exitDx=0;exitDy=0;entryX=0.5;entryY=0;entryDx=0;entryDy=0;endArrow=block;endFill=0;" edge="1" parent="SkYOXdB6ktaihSJoesc6-59" source="M3zcWdmuoQv2XmHBQKJG-107" target="M3zcWdmuoQv2XmHBQKJG-115">
          <mxGeometry relative="1" as="geometry" />
        </mxCell>
        <mxCell id="M3zcWdmuoQv2XmHBQKJG-107" value="&lt;div&gt;test internet&lt;/div&gt;&lt;div&gt;access&lt;br&gt;&lt;/div&gt;" style="rhombus;whiteSpace=wrap;html=1;shadow=0;fontFamily=Helvetica;fontSize=12;align=center;strokeWidth=1;spacing=6;spacingTop=-4;" vertex="1" parent="SkYOXdB6ktaihSJoesc6-59">
          <mxGeometry x="191.75" y="1225" width="165" height="80" as="geometry" />
        </mxCell>
        <mxCell id="M3zcWdmuoQv2XmHBQKJG-114" style="edgeStyle=orthogonalEdgeStyle;rounded=0;orthogonalLoop=1;jettySize=auto;html=1;exitX=0.5;exitY=0;exitDx=0;exitDy=0;entryX=1;entryY=0.5;entryDx=0;entryDy=0;endArrow=blockThin;endFill=0;" edge="1" parent="SkYOXdB6ktaihSJoesc6-59" source="M3zcWdmuoQv2XmHBQKJG-111" target="M3zcWdmuoQv2XmHBQKJG-105">
          <mxGeometry relative="1" as="geometry" />
        </mxCell>
        <mxCell id="M3zcWdmuoQv2XmHBQKJG-111" value="config UE" style="rounded=1;whiteSpace=wrap;html=1;" vertex="1" parent="SkYOXdB6ktaihSJoesc6-59">
          <mxGeometry x="424.25" y="1247.5" width="99.5" height="35" as="geometry" />
        </mxCell>
        <mxCell id="M3zcWdmuoQv2XmHBQKJG-115" value="UE w/ internet" style="rounded=1;whiteSpace=wrap;html=1;fillColor=#d5e8d4;strokeColor=#82b366;" vertex="1" parent="SkYOXdB6ktaihSJoesc6-59">
          <mxGeometry x="212" y="1335" width="122" height="40" as="geometry" />
        </mxCell>
        <mxCell id="M3zcWdmuoQv2XmHBQKJG-120" value="Open5GS" style="text;html=1;align=center;verticalAlign=middle;resizable=0;points=[];autosize=1;strokeColor=none;fillColor=#7EA6E0;" vertex="1" parent="SkYOXdB6ktaihSJoesc6-59">
          <mxGeometry y="141" width="80" height="30" as="geometry" />
        </mxCell>
        <mxCell id="M3zcWdmuoQv2XmHBQKJG-122" value="&lt;div&gt;gNB&lt;/div&gt;&lt;div&gt;srsRAN_Project&lt;br&gt;&lt;/div&gt;" style="text;html=1;align=center;verticalAlign=middle;resizable=0;points=[];autosize=1;strokeColor=none;fillColor=#FF3333;" vertex="1" parent="SkYOXdB6ktaihSJoesc6-59">
          <mxGeometry y="711" width="120" height="40" as="geometry" />
        </mxCell>
        <mxCell id="M3zcWdmuoQv2XmHBQKJG-124" value="UE" style="text;html=1;align=center;verticalAlign=middle;resizable=0;points=[];autosize=1;strokeColor=none;fillColor=#B5739D;" vertex="1" parent="SkYOXdB6ktaihSJoesc6-59">
          <mxGeometry y="1121" width="40" height="30" as="geometry" />
        </mxCell>
      </root>
    </mxGraphModel>
  </diagram>
</mxfile>
